HIERARCHY
ROOT Hips
{
  OFFSET 267.745 86.9975 -272.335
  CHANNELS 6 Xposition Yposition Zposition Zrotation Xrotation Yrotation
  JOINT LeftUpLeg
  {
    OFFSET 8.64259 1.95398 -2.38835
    CHANNELS 3 Zrotation Xrotation Yrotation
    JOINT LeftLeg
    {
      OFFSET 43.7702 0 0
      CHANNELS 3 Zrotation Xrotation Yrotation
      JOINT LeftFoot
      {
        OFFSET 40.6238 0 0
        CHANNELS 3 Zrotation Xrotation Yrotation
        JOINT LeftToeBase
        {
          OFFSET 12.7242 0 0
          CHANNELS 3 Zrotation Xrotation Yrotation
          End Site
          {
            OFFSET 0 0 0
          }
        }
      }
    }
  }
  JOINT RightUpLeg
  {
    OFFSET -8.2249 1.95398 -2.59336
    CHANNELS 3 Zrotation Xrotation Yrotation
    JOINT RightLeg
    {
      OFFSET 43.5653 0 0
      CHANNELS 3 Zrotation Xrotation Yrotation
      JOINT RightFoot
      {
        OFFSET 40.6238 0 0
        CHANNELS 3 Zrotation Xrotation Yrotation
        JOINT RightToeBase
        {
          OFFSET 12.7242 0 0
          CHANNELS 3 Zrotation Xrotation Yrotation
          End Site
          {
            OFFSET 0 0 0
          }
        }
      }
    }
  }
  JOINT Spine
  {
    OFFSET 0.165834 0.87714 6.61349
    CHANNELS 3 Zrotation Xrotation Yrotation
    JOINT Spine1
    {
      OFFSET 7.38963 1.71661e-005 0
      CHANNELS 3 Zrotation Xrotation Yrotation
      JOINT Spine2
      {
        OFFSET 11.9445 1.14441e-005 0
        CHANNELS 3 Zrotation Xrotation Yrotation
        JOINT Spine3
        {
          OFFSET 14.7254 4.19617e-005 0
          CHANNELS 3 Zrotation Xrotation Yrotation
          JOINT Spine4
          {
            OFFSET 10.9679 0 0
            CHANNELS 3 Zrotation Xrotation Yrotation
            JOINT RightShoulder
            {
              OFFSET 2.46616 -1.6653 3.69651
              CHANNELS 3 Zrotation Xrotation Yrotation
              JOINT RightArm
              {
                OFFSET 13.0012 0 0
                CHANNELS 3 Zrotation Xrotation Yrotation
                JOINT RightForeArm
                {
                  OFFSET 28.7848 1.52588e-005 0
                  CHANNELS 3 Zrotation Xrotation Yrotation
                  JOINT RightHand
                  {
                    OFFSET 26.5688 1.52588e-005 0
                    CHANNELS 3 Zrotation Xrotation Yrotation
                    End Site
                    {
                      OFFSET 0 0 0
                    }
                  }
                }
              }
            }
            JOINT LeftShoulder
            {
              OFFSET 2.38034 -1.29275 -3.7523
              CHANNELS 3 Zrotation Xrotation Yrotation
              JOINT LeftArm
              {
                OFFSET 16.3182 6.10352e-005 0
                CHANNELS 3 Zrotation Xrotation Yrotation
                JOINT LeftForeArm
                {
                  OFFSET 27.0901 0 0
                  CHANNELS 3 Zrotation Xrotation Yrotation
                  JOINT LeftHand
                  {
                    OFFSET 24.5451 1.52588e-005 0
                    CHANNELS 3 Zrotation Xrotation Yrotation
                    End Site
                    {
                      OFFSET 0 0 0
                    }
                  }
                }
              }
            }
            JOINT Neck
            {
              OFFSET 5.0226 -0.0266342 0
              CHANNELS 3 Zrotation Xrotation Yrotation
              JOINT Head
              {
                OFFSET 6.69364 2.86102e-005 0
                CHANNELS 3 Zrotation Xrotation Yrotation
                End Site
                {
                  OFFSET 0 0 0
                }
              }
            }
          }
        }
      }
    }
  }
}
MOTION
Frames:	12
Frame Time:	0.0416667
-306.228 84.2864 290.799 106.358 41.1073 90.9447 -174.282 16.1093 96.0532 86.6011 -40.8517 166.263 -96.1788 7.60096 -75.75 172.688 15.6892 20.6112 122.341 -31.4457 52.4984 0.145476 -0.35267 32.0561 55.7163 8.87456 -67.3772 41.2656 -42.4669 -144.825 0.116131 4.09382 -92.8235 18.6228 -1.26152 -5.49145 6.94111 -1.50164 -5.43089 -15.501 0.444395 -5.61656 4.51161 0.444388 -5.61657 114.17 -3.39411 -40.4211 92.266 -19.9149 -27.2202 -179.269 10.1233 -175.992 10.5565 -6.22495 -63.0033 -57.9041 -29.2254 135.565 -86.3659 41.5516 96.2451 -15.3829 -23.7499 -155.174 36.0278 -3.48072 -14.0852 -95.6727 -35.9596 1.62342 48.3687 -33.8131 3.18475 
-306.499 84.3285 291.091 106.065 41.1837 90.9286 -174.245 16.1083 95.6448 86.4236 -40.2088 166.425 -98.0131 6.18783 -74.4325 171.61 16.2392 21.0702 122.55 -31.5768 52.2205 2.57386 -4.05623 33.2346 56.6959 10.0723 -69.0635 41.4672 -45.8297 -144.969 0.126367 4.08121 -92.7937 18.6497 -1.22654 -5.43784 6.96825 -1.46432 -5.37886 -15.4757 0.461726 -5.55495 4.53692 0.46173 -5.55495 114.295 -3.60413 -40.2549 92.1002 -20.395 -27.5008 -179.283 6.65604 -176.705 10.5681 -6.09965 -61.9586 -58.165 -28.7886 135.319 -87.1279 41.8489 96.78 -15.4805 -23.9806 -155.748 36.6255 -3.38767 -13.6643 -95.4023 -35.7014 1.51652 48.158 -33.5473 3.44058 
-307.292 84.4112 291.936 105.21 41.4012 90.8869 -174.13 16.1384 94.4486 85.9002 -38.0312 166.926 -103.166 1.5336 -70.4691 168.441 17.3315 22.2365 123.114 -31.9607 51.739 12.1995 -16.559 37.3026 59.0626 14.8731 -76.7721 43.0382 -57.574 -143.838 0.155724 4.04454 -92.7074 18.728 -1.12515 -5.28251 7.04708 -1.35624 -5.2281 -15.4021 0.512012 -5.37642 4.61053 0.512009 -5.37642 114.659 -4.20625 -39.78 91.5984 -21.773 -28.3267 -179.715 -3.10792 -178.965 10.3111 -5.59872 -58.9896 -58.9012 -27.54 134.613 -89.0912 42.7406 98.153 -15.789 -24.5206 -157.36 38.3073 -3.08032 -12.4234 -94.6115 -34.935 1.20765 47.502 -32.7504 4.1945 
-308.555 84.5234 293.277 103.827 41.7351 90.8346 -173.933 16.1849 92.5339 84.8072 -35.0658 167.557 -110.598 -7.25632 -65.1773 163.438 17.5683 23.4269 124.327 -31.9723 52.292 32.8606 -35.9576 47.9849 61.7219 25.0714 -91.7663 52.5684 -74.3481 -133.608 0.202641 3.98522 -92.5693 18.8543 -0.963021 -5.03422 7.17416 -1.1834 -4.98714 -15.2831 0.592378 -5.09101 4.72951 0.592377 -5.09101 115.237 -5.15119 -39.0403 90.7299 -23.9386 -29.6933 179.312 -16.989 179.949 9.22405 -4.59456 -54.763 -60.019 -25.5973 133.515 -91.389 44.3154 99.7156 -16.3638 -24.9526 -159.763 40.8351 -2.4667 -10.3637 -93.3228 -33.6492 0.716432 46.2963 -31.3871 5.45304 
-310.223 84.6669 295.049 101.943 42.1522 90.7946 -173.699 16.1841 90.0341 82.9427 -32.4978 168.112 -119.15 -20.233 -60.4354 157.32 15.6234 23.5526 126.055 -31.1647 52.9433 61.002 -48.0418 67.6857 67.2157 40.2286 -110.179 48.5995 -74.2562 -138.8 0.265396 3.90435 -92.3846 19.0256 -0.745929 -4.70287 7.34652 -0.951966 -4.66562 -15.121 0.700308 -4.70986 4.8916 0.700295 -4.70987 116.007 -6.3846 -38.0849 89.4353 -26.764 -31.6255 179.123 -31.8376 -179.999 7.35557 -3.36546 -50.4592 -61.4044 -23.1073 132.102 -92.6417 46.8292 100.354 -17.2938 -24.6482 -162.583 43.895 -1.40775 -7.45249 -91.5407 -31.8059 0.05887 44.3439 -29.3819 7.28939 
-312.286 84.7201 297.208 99.5892 42.6138 90.7968 -173.506 16.1005 87.1064 80.3354 -30.4921 168.601 -127.79 -36.0252 -56.9159 150.999 11.4279 21.9049 128.301 -29.2315 53.2002 81.8241 -49.3924 83.8582 80.1047 54.4471 -128.55 36.9436 -48.1484 -155.788 0.342506 3.80291 -92.1595 19.2391 -0.479634 -4.30026 7.5612 -0.668261 -4.27506 -14.9181 0.833714 -4.24595 5.09454 0.833705 -4.24595 116.944 -7.85232 -36.9645 87.6265 -30.1051 -34.1815 179.937 -45.2667 180 5.49393 -2.36295 -46.914 -62.9373 -20.2379 130.463 -90.9043 50.5886 98.3164 -18.6798 -22.9081 -165.302 47.1226 0.24129 -3.65197 -89.2496 -29.3993 -0.771532 41.4337 -26.6707 9.93618 
-314.692 84.7441 299.698 96.8004 43.0756 90.8781 -173.49 15.6795 83.9611 77.5906 -29.0646 169.027 -135.07 -51.999 -54.3738 145.071 6.36806 18.9307 130.395 -26.975 52.0469 96.0434 -45.4566 94.4072 85.1537 60.1072 -138.115 40.422 -12.8663 -152.068 0.432541 3.68208 -91.9017 19.4912 -0.170816 -3.84101 7.8146 -0.339559 -3.8298 -14.6771 0.990652 -3.71516 5.33557 0.99063 -3.71517 118.023 -9.5011 -35.73 85.1903 -33.7985 -37.4521 -178.456 -56.5804 179.998 4.25855 -1.76299 -44.2602 -64.5044 -17.1669 128.686 -83.231 55.4244 90.6597 -20.652 -19.1845 -167.218 50.129 2.57772 1.03668 -86.8024 -27.9762 -2.37406 41.1897 -23.6802 17.2082 
-317.883 83.5341 302.522 93.6273 43.4897 91.08 -173.223 15.3687 80.2021 73.3747 -26.9748 169.575 -137.331 -65.2104 -48.5528 139.79 2.20252 15.9127 131.598 -25.1025 53.9261 23.3328 -22.2313 48.9203 -175.826 -69.2305 -75.772 133.138 -37.2364 6.38725 0.533312 3.54366 -91.6203 19.7776 0.172292 -3.34288 8.1024 0.0250833 -3.34723 -14.4015 1.1685 -3.13695 5.61116 1.16851 -3.13696 119.213 -11.28 -34.4326 81.994 -37.6603 -41.5556 -176.419 -66.1485 179.995 3.73765 -1.49514 -42.3038 -66.011 -14.0629 126.867 -65.7191 59.4512 73.2277 -23.3998 -13.4481 -167.477 52.5451 5.57512 6.50812 -80.6879 -14.7026 0.660007 10.1956 -15.2399 -4.56291 
-320.882 82.9146 305.676 90.1366 43.8111 91.4398 -173.711 13.9506 76.8253 70.8806 -25.7017 169.948 -128.477 -74.6196 -35.0346 135.173 -0.230758 13.8868 132.825 -20.7 51.3449 -57.6935 36.307 69.3607 -82.7753 -40.0434 -90.2118 -40.2716 -59.5257 96.0874 0.642647 3.3899 -91.3254 20.0935 0.539861 -2.82474 8.41954 0.415064 -2.84576 -14.0958 1.3636 -2.53224 5.91686 1.3636 -2.53224 120.484 -13.145 -33.1199 77.888 -41.4921 -46.6343 -174.19 -74.5187 179.988 3.75255 -1.43802 -40.8367 -67.3925 -11.0577 125.087 -39.7942 58.3594 46.9838 -27.1073 -6.53069 -165.314 54.0677 9.0171 12.512 -75.858 -8.24266 1.94471 -5.58596 -8.59897 -18.0075 
-324.2 82.4026 308.916 86.4085 44.0044 91.9819 -174.491 12.0347 73.2412 69.385 -24.5963 170.207 -102.137 -78.2355 -6.93186 131.084 -1.07703 13.1168 132.442 -17.2042 48.2008 -57.743 31.0018 71.8662 -70.8237 -43.1423 -82.5515 -97.5172 -35.3704 41.7132 0.757925 3.22334 -91.0265 20.433 0.922042 -2.30403 8.76028 0.819788 -2.34236 -13.7653 1.57174 -1.92062 6.24735 1.57176 -1.92062 121.81 -15.0603 -31.8288 72.7104 -45.0867 -52.8461 -171.88 -82.0848 179.968 4.10788 -1.50177 -39.7156 -68.6161 -8.23656 123.409 -18.0288 50.0062 24.0219 -31.7844 0.0790797 -160.422 54.475 12.5327 18.7268 -71.4282 -4.95718 2.48088 -14.3252 -2.76054 -28.6011 
-327.733 81.7711 312.229 82.5339 44.046 92.7136 -175.645 9.84932 69.3555 68.5978 -23.3214 170.368 -77.5127 -75.9903 17.25 127.344 -0.890298 13.3458 130.32 -13.2751 45.2002 -46.7026 23.1471 69.5207 -64.1423 -36.8631 -70.2193 -96.686 -22.791 36.3159 0.876542 3.04735 -90.732 20.7892 1.30943 -1.79606 9.11758 1.22913 -1.85193 -13.4169 1.78862 -1.31955 6.59579 1.78862 -1.31955 123.166 -16.9959 -30.5834 66.3042 -48.2289 -60.3429 -169.817 -89.1106 179.625 4.65402 -1.62844 -38.8444 -69.6719 -5.64761 121.876 -5.87098 37.4807 9.47746 -36.9751 4.91208 -153.196 53.6498 15.7151 24.873 -67.2814 -2.39392 2.50352 -20.0525 2.81176 -37.4603 
-331.385 81.1214 315.511 78.6102 43.9268 93.6239 -177.266 7.57581 65.018 68.7352 -21.7745 170.399 -66.8153 -71.4308 25.5688 123.879 -0.217754 14.1613 125.705 -8.61324 42.2946 -37.1011 16.2898 69.4556 -64.0559 -30.7019 -63.7898 -92.7251 -15.0381 33.5033 0.995816 2.8662 -90.4494 21.1537 1.69261 -1.3141 9.48312 1.63313 -1.38733 -13.0588 2.00926 -0.744555 6.95389 2.00926 -0.744546 124.534 -18.9259 -29.3971 58.5499 -50.6937 -69.2283 13.1443 -84.2055 0.0713618 5.28829 -1.78265 -38.1574 -70.5634 -3.31373 120.517 -0.228698 24.1876 0.167972 -41.7495 7.2712 -144.674 51.6261 18.244 30.7689 -63.4445 -0.66606 2.04684 -23.9244 7.24598 -43.4908 
